<svg width="56" height="56" viewBox="0 0 56 56" fill="none" xmlns="http://www.w3.org/2000/svg">
<rect x="3.5" y="3.5" width="49" height="49" rx="6" fill="url(#paint0_radial_23_69)"/>
<rect x="3.5" y="3.5" width="49" height="49" rx="6" fill="url(#paint1_radial_23_69)"/>
<rect x="3.5" y="3.5" width="49" height="49" rx="6" fill="url(#paint2_radial_23_69)"/>
<path d="M40.25 18.375C40.25 19.8247 39.0747 21 37.625 21C36.1753 21 35 19.8247 35 18.375C35 16.9253 36.1753 15.75 37.625 15.75C39.0747 15.75 40.25 16.9253 40.25 18.375Z" fill="white"/>
<path fill-rule="evenodd" clip-rule="evenodd" d="M28 36.75C32.8325 36.75 36.75 32.8325 36.75 28C36.75 23.1675 32.8325 19.25 28 19.25C23.1675 19.25 19.25 23.1675 19.25 28C19.25 32.8325 23.1675 36.75 28 36.75ZM28 33.25C30.8995 33.25 33.25 30.8995 33.25 28C33.25 25.1005 30.8995 22.75 28 22.75C25.1005 22.75 22.75 25.1005 22.75 28C22.75 30.8995 25.1005 33.25 28 33.25Z" fill="white"/>
<path fill-rule="evenodd" clip-rule="evenodd" d="M10.5 27.3C10.5 21.4194 10.5 18.4792 11.6444 16.2331C12.6511 14.2574 14.2574 12.6511 16.2331 11.6444C18.4792 10.5 21.4194 10.5 27.3 10.5H28.7C34.5806 10.5 37.5208 10.5 39.7669 11.6444C41.7426 12.6511 43.3489 14.2574 44.3556 16.2331C45.5 18.4792 45.5 21.4194 45.5 27.3V28.7C45.5 34.5806 45.5 37.5208 44.3556 39.7669C43.3489 41.7426 41.7426 43.3489 39.7669 44.3556C37.5208 45.5 34.5806 45.5 28.7 45.5H27.3C21.4194 45.5 18.4792 45.5 16.2331 44.3556C14.2574 43.3489 12.6511 41.7426 11.6444 39.7669C10.5 37.5208 10.5 34.5806 10.5 28.7V27.3ZM27.3 14H28.7C31.698 14 33.7361 14.0027 35.3114 14.1314C36.8458 14.2568 37.6305 14.484 38.1779 14.763C39.4951 15.4341 40.5659 16.5049 41.237 17.8221C41.516 18.3695 41.7432 19.1542 41.8686 20.6886C41.9973 22.2639 42 24.302 42 27.3V28.7C42 31.698 41.9973 33.7361 41.8686 35.3114C41.7432 36.8458 41.516 37.6305 41.237 38.1779C40.5659 39.4951 39.4951 40.5659 38.1779 41.237C37.6305 41.516 36.8458 41.7432 35.3114 41.8686C33.7361 41.9973 31.698 42 28.7 42H27.3C24.302 42 22.2639 41.9973 20.6886 41.8686C19.1542 41.7432 18.3695 41.516 17.8221 41.237C16.5049 40.5659 15.4341 39.4951 14.763 38.1779C14.484 37.6305 14.2568 36.8458 14.1314 35.3114C14.0027 33.7361 14 31.698 14 28.7V27.3C14 24.302 14.0027 22.2639 14.1314 20.6886C14.2568 19.1542 14.484 18.3695 14.763 17.8221C15.4341 16.5049 16.5049 15.4341 17.8221 14.763C18.3695 14.484 19.1542 14.2568 20.6886 14.1314C22.2639 14.0027 24.302 14 27.3 14Z" fill="white"/>
<defs>
<radialGradient id="paint0_radial_23_69" cx="0" cy="0" r="1" gradientUnits="userSpaceOnUse" gradientTransform="translate(21 40.25) rotate(-55.3758) scale(44.6593)">
<stop stop-color="#B13589"/>
<stop offset="0.79309" stop-color="#C62F94"/>
<stop offset="1" stop-color="#8A3AC8"/>
</radialGradient>
<radialGradient id="paint1_radial_23_69" cx="0" cy="0" r="1" gradientUnits="userSpaceOnUse" gradientTransform="translate(19.25 54.25) rotate(-65.1363) scale(39.5399)">
<stop stop-color="#E0E8B7"/>
<stop offset="0.444662" stop-color="#FB8A2E"/>
<stop offset="0.71474" stop-color="#E2425C"/>
<stop offset="1" stop-color="#E2425C" stop-opacity="0"/>
</radialGradient>
<radialGradient id="paint2_radial_23_69" cx="0" cy="0" r="1" gradientUnits="userSpaceOnUse" gradientTransform="translate(0.875003 5.25) rotate(-8.1301) scale(68.059 14.5571)">
<stop offset="0.156701" stop-color="#406ADC"/>
<stop offset="0.467799" stop-color="#6A45BE"/>
<stop offset="1" stop-color="#6A45BE" stop-opacity="0"/>
</radialGradient>
</defs>
</svg>
