<svg width="56" height="56" viewBox="0 0 56 56" fill="none" xmlns="http://www.w3.org/2000/svg">
<path d="M14.7889 34.637C15.0624 32.3727 15.9911 31.1049 17.7411 29.8053C20.2451 28.0452 23.373 29.0408 23.373 29.0408V23.1343C24.1334 23.1148 24.8941 23.1599 25.6462 23.269V30.8701C25.6462 30.8701 22.5193 29.8745 20.0153 31.6355C18.2662 32.9342 17.3357 34.2029 17.0631 36.4672C17.0546 37.6968 17.2853 39.304 18.3479 40.6937C18.0852 40.559 17.8174 40.4055 17.5446 40.2332C15.2039 38.6615 14.7775 36.3034 14.7889 34.637ZM38.5613 12.2131C36.8388 10.3256 36.1874 8.41981 35.9519 7.08105H38.1188C38.1188 7.08105 37.6867 10.5913 40.8355 14.0433L40.8792 14.0897C40.0305 13.5559 39.2523 12.9258 38.5613 12.2131ZM48.9998 17.5645V25.0127C48.9998 25.0127 46.2347 24.9044 44.1884 24.3838C41.3312 23.6558 39.4947 22.5391 39.4947 22.5391C39.4947 22.5391 38.2261 21.7427 38.1235 21.6872V37.0679C38.1235 37.9243 37.889 40.063 37.174 41.8468C36.2405 44.1803 34.8001 45.712 34.5351 46.0251C34.5351 46.0251 32.7832 48.0955 29.6923 49.4898C26.9063 50.7476 24.4602 50.7157 23.7291 50.7476C23.7291 50.7476 19.5007 50.915 15.6958 48.4423C14.873 47.8973 14.1049 47.28 13.4016 46.5984L13.4206 46.6121C17.2265 49.0848 21.4539 48.9174 21.4539 48.9174C22.186 48.8855 24.6321 48.9174 27.4172 47.6596C30.5052 46.2653 32.26 44.1948 32.26 44.1948C32.522 43.8818 33.9692 42.3501 34.8988 40.0157C35.6119 38.2328 35.8484 36.0932 35.8484 35.2368V19.8579C35.9509 19.9143 37.2186 20.7107 37.2186 20.7107C37.2186 20.7107 39.056 21.8283 41.9132 22.5555C43.9605 23.076 46.7247 23.1843 46.7247 23.1843V17.3479C47.6704 17.5599 48.4766 17.6173 48.9998 17.5645Z" fill="#EE1D52"/>
<path d="M46.7258 17.3479V23.1825C46.7258 23.1825 43.9616 23.0742 41.9143 22.5536C39.0571 21.8256 37.2197 20.7089 37.2197 20.7089C37.2197 20.7089 35.952 19.9125 35.8495 19.8561V35.2386C35.8495 36.095 35.6149 38.2346 34.8999 40.0175C33.9665 42.3519 32.526 43.8836 32.261 44.1967C32.261 44.1967 30.5082 46.2671 27.4183 47.6614C24.6332 48.9192 22.1871 48.8873 21.455 48.9192C21.455 48.9192 17.2275 49.0866 13.4217 46.6139L13.4027 46.6002C13.0009 46.2112 12.6226 45.8003 12.2699 45.3698C11.0554 43.8891 10.3109 42.138 10.1238 41.6384C10.1235 41.6363 10.1235 41.6341 10.1238 41.632C9.82283 40.7638 9.19042 38.6787 9.27683 36.6592C9.42971 33.0962 10.6831 30.9092 11.0145 30.3614C11.8922 28.8673 13.0338 27.5306 14.3883 26.4106C15.5837 25.4442 16.9386 24.6753 18.3974 24.1354C19.9745 23.5015 21.6632 23.1617 23.3731 23.1343V29.0408C23.3731 29.0408 20.2453 28.0488 17.7422 29.8053C15.9922 31.1049 15.0635 32.3727 14.79 34.637C14.7786 36.3034 15.205 38.6615 17.5437 40.2341C17.8166 40.407 18.0844 40.5605 18.3471 40.6946C18.7557 41.2257 19.253 41.6885 19.8189 42.0643C22.1036 43.5105 24.0179 43.6115 26.4659 42.6723C28.0982 42.0443 29.3269 40.6291 29.8966 39.061C30.2546 38.0817 30.2499 37.0961 30.2499 36.0768V7.08105H35.9473C36.1828 8.41981 36.8342 10.3256 38.5567 12.2131C39.2476 12.9258 40.0259 13.5559 40.8746 14.0897C41.1252 14.3491 42.4072 15.6314 44.0527 16.4187C44.9036 16.8256 45.8005 17.1374 46.7258 17.3479Z" fill="black"/>
<path d="M7.8562 39.8247V39.8293L7.99757 40.2124C7.98133 40.1678 7.9288 40.0322 7.8562 39.8247Z" fill="#69C9D0"/>
<path d="M18.3974 24.1355C16.9386 24.6754 15.5837 25.4443 14.3884 26.4107C13.0334 27.5332 11.8921 28.8728 11.0155 30.3697C10.6841 30.9157 9.43069 33.1045 9.27781 36.6676C9.1914 38.6871 9.82381 40.7721 10.1248 41.6403C10.1245 41.6424 10.1245 41.6446 10.1248 41.6467C10.3147 42.1418 11.0563 43.8928 12.2708 45.3781C12.6236 45.8086 13.0019 46.2195 13.4037 46.6086C12.1162 45.7552 10.9681 44.7234 9.99663 43.547C8.79258 42.079 8.05002 40.3462 7.85631 39.8347C7.85608 39.8311 7.85608 39.8274 7.85631 39.8238V39.8174C7.55435 38.9501 6.92004 36.8641 7.00835 34.8419C7.16123 31.2789 8.41466 29.0919 8.74605 28.544C9.62238 27.047 10.7637 25.7074 12.1189 24.5851C13.314 23.6183 14.6689 22.8494 16.128 22.3098C17.038 21.9479 17.9861 21.681 18.9558 21.5135C20.4171 21.269 21.9096 21.2478 23.3779 21.4507V23.1344C21.6664 23.1612 19.976 23.501 18.3974 24.1355Z" fill="#69C9D0"/>
<path d="M35.9519 7.08112H30.2545V36.0777C30.2545 37.0971 30.2545 38.08 29.9013 39.062C29.3258 40.6291 28.1018 42.0443 26.4705 42.6723C24.0216 43.6152 22.1072 43.5105 19.8235 42.0644C19.2566 41.6903 18.758 41.229 18.3479 40.6992C20.2936 41.694 22.0351 41.6767 24.1925 40.8467C25.8229 40.2187 27.0488 38.8035 27.6223 37.2354C27.9812 36.2561 27.9765 35.2705 27.9765 34.2521V5.25H35.8436C35.8436 5.25 35.7553 5.9708 35.9519 7.08112ZM46.7256 15.7343V17.3479C45.802 17.1371 44.9068 16.8253 44.0574 16.4187C42.4118 15.6315 41.1299 14.3492 40.8792 14.0898C41.1701 14.2728 41.4719 14.4394 41.7832 14.5885C43.7839 15.5459 45.7542 15.8317 46.7256 15.7343Z" fill="#69C9D0"/>
</svg>
